<svg width="64" height="64" viewBox="0 0 64 64" xmlns="http://www.w3.org/2000/svg">
  <!-- Background circle with Instagram gradient -->
  <defs>
    <radialGradient id="instagramGradient" cx="30%" cy="40%" r="70%">
      <stop offset="0%" stop-color="#833AB4" />
      <stop offset="50%" stop-color="#E4405F" />
      <stop offset="100%" stop-color="#C13584" />
    </radialGradient>

    <!-- Radar sweep gradient -->
    <linearGradient id="radarSweep" x1="0%" y1="0%" x2="100%" y2="100%">
      <stop offset="0%" stop-color="#1e66f5" stop-opacity="0.8" />
      <stop offset="100%" stop-color="#1e66f5" stop-opacity="0.2" />
    </linearGradient>
  </defs>

  <!-- Main background circle -->
  <circle cx="32" cy="32" r="28" fill="url(#instagramGradient)" opacity="0.9" />

  <!-- Outer radar ring -->
  <circle cx="32" cy="32" r="22" fill="none" stroke="#ffffff" stroke-width="1.5" opacity="0.6" />

  <!-- Middle radar ring -->
  <circle cx="32" cy="32" r="16" fill="none" stroke="#ffffff" stroke-width="1.5" opacity="0.7" />

  <!-- Inner radar ring -->
  <circle cx="32" cy="32" r="10" fill="none" stroke="#ffffff" stroke-width="1.5" opacity="0.8" />

  <!-- Radar sweep line -->
  <path d="M 32 32 L 32 10 A 22 22 0 0 1 45.5 18.5 Z" fill="url(#radarSweep)" opacity="0.4" />

  <!-- Center tracking dot -->
  <circle cx="32" cy="32" r="3" fill="#1e66f5" />

  <!-- Tracking blips -->
  <circle cx="40" cy="24" r="1.5" fill="#ffffff" opacity="0.9" />

  <circle cx="26" cy="20" r="1" fill="#ffffff" opacity="0.7" />

  <circle cx="44" cy="36" r="1" fill="#ffffff" opacity="0.8" />

  <!-- Crosshairs -->
  <line x1="32" y1="10" x2="32" y2="14" stroke="#ffffff" stroke-width="1.5" opacity="0.6" />

  <line x1="32" y1="50" x2="32" y2="54" stroke="#ffffff" stroke-width="1.5" opacity="0.6" />

  <line x1="10" y1="32" x2="14" y2="32" stroke="#ffffff" stroke-width="1.5" opacity="0.6" />

  <line x1="50" y1="32" x2="54" y2="32" stroke="#ffffff" stroke-width="1.5" opacity="0.6" />
</svg>