<?xml version="1.0" encoding="utf-8" ?>
<svg xmlns="http://www.w3.org/2000/svg" xmlns:xlink="http://www.w3.org/1999/xlink" width="1024" height="1024"
  viewBox="0 0 1024 1024">
  <defs>
    <linearGradient id="gradient_0" gradientUnits="userSpaceOnUse" x1="857.0094" y1="768.26996" x2="153.05042"
      y2="127.07534">
      <stop offset="0" stop-color="#3F37A9" />
      <stop offset="1" stop-color="#4E7EF5" />
    </linearGradient>
  </defs>
  <path fill="url(#gradient_0)"
    d="M507.12 33.5847C529.671 32.187 537.251 46.2452 554.082 58.4964C624.06 109.434 703.914 146.888 785.679 174.677C821.519 186.858 857.711 195.645 894.961 203.023C904.639 204.936 914.37 206.57 924.141 207.923C929.926 208.76 936.063 209.379 941.733 210.669C953.919 213.355 963.361 224.462 963.572 237.051C963.811 251.314 963.655 265.814 963.604 280.13L963.442 361.748C963.41 402.059 964.759 445.845 961.468 485.583C952.779 601.133 907.11 710.814 831.221 798.384C765.386 873.618 673.249 933.793 580.023 969.205C558.708 977.301 537.962 986.978 515.074 988.491C494.167 988.699 482.42 983.222 463.318 976.311C416.444 959.444 371.416 937.833 328.935 911.815C244.603 860.274 167.586 784.678 121.482 696.616C102.25 659.661 87.7161 620.445 78.2188 579.882C71.146 550.254 66.3259 520.133 63.7997 489.778C61.4458 462.008 61.1187 437.963 60.8473 410.15C60.561 377.916 60.5487 345.681 60.8105 313.447L60.9561 262.684C60.9476 255.698 60.9832 248.414 60.9151 241.456C60.5798 207.174 89.2524 210.184 113.946 206.011C132.375 202.987 150.695 199.326 168.871 195.035C248.144 175.846 324.436 145.954 395.646 106.184C419.097 93.0994 441.737 78.6115 463.443 62.7988C474.439 54.6836 484.785 45.4689 495.906 37.5463C498.526 35.6804 503.993 34.3152 507.12 33.5847Z" />
  <defs>
    <linearGradient id="gradient_1" gradientUnits="userSpaceOnUse" x1="741.90515" y1="672.55939" x2="268.38861"
      y2="246.26109">
      <stop offset="0" stop-color="#754FE9" />
      <stop offset="1" stop-color="#71A6F8" />
    </linearGradient>
  </defs>
  <path fill="url(#gradient_1)"
    d="M510.36 176.08C512.856 176.109 515.007 176.388 516.96 178.009C522.464 182.576 527.361 188.532 532.405 193.614C555.957 217.342 582.785 237.562 611.336 254.898C662.211 285.477 717.775 307.469 775.797 319.992C786.905 322.294 798.089 324.211 809.328 325.74C816.238 326.706 823.758 327.453 830.519 328.668C831.095 361.628 831.144 394.318 829.454 426.98C821.268 585.209 728.955 729.347 588.171 802.082C563.752 814.698 538.308 826.706 511.698 834.878C509.894 834.535 508.108 834.1 506.347 833.576C489.044 828.364 462.32 816.352 446.21 808.007C360.338 763.508 290.357 696.23 243.746 611.761C202.139 536.36 190.482 459.659 191.483 374.375C191.651 360.083 190.421 344.912 192.228 330.819C192.456 329.042 196.345 326.189 198.179 326.106C242.272 321.199 284.23 311.919 326.188 296.792C377.502 277.773 425.243 250.237 467.402 215.344C481.359 203.718 494.238 191.352 506.744 178.24C507.557 177.388 509.266 176.573 510.36 176.08Z" />
  <defs>
    <linearGradient id="gradient_2" gradientUnits="userSpaceOnUse" x1="726.62384" y1="663.18201" x2="283.3497"
      y2="262.83832">
      <stop offset="0" stop-color="#3B2194" />
      <stop offset="1" stop-color="#4E83FF" />
    </linearGradient>
  </defs>
  <path fill="url(#gradient_2)"
    d="M509.483 202.969C511.931 202.831 514.678 202.777 516.537 204.37C524.635 211.307 532.088 219.128 540.253 226.041C560.996 243.798 583.151 259.836 606.499 273.994C668.715 311.665 740.512 334.807 812.495 344.148C813.623 372.699 813.458 405.996 811.315 434.487C807.259 490.303 792.502 544.817 767.848 595.056C753.445 624.911 740.12 645.857 719.219 671.793C665.407 738.474 593.756 788.492 512.612 816.02C512.324 816.053 511.441 816.177 511.19 816.09C442.93 792.649 384.327 754.043 333.638 702.929C304.976 674.21 280.519 641.582 260.994 606.015C210.72 514.734 209.196 444.349 209.629 342.718C255.227 339.379 305.236 324.441 347.757 307.981C401.787 287.067 451.395 254.099 494.676 215.851C499.609 211.492 504.295 207.055 509.483 202.969Z" />
  <path fill="#FEFEFE"
    d="M500.696 325.226C604.035 318.979 692.832 397.774 698.921 501.121C705.009 604.469 626.078 693.145 522.721 699.075C419.589 704.992 331.147 626.269 325.072 523.146C318.996 420.023 397.583 331.46 500.696 325.226Z" />
  <defs>
    <linearGradient id="gradient_3" gradientUnits="userSpaceOnUse" x1="707.56421" y1="530.83887" x2="569.39215"
      y2="416.4361">
      <stop offset="0" stop-color="#3C31A4" />
      <stop offset="1" stop-color="#454CC8" />
    </linearGradient>
  </defs>
  <path fill="url(#gradient_3)"
    d="M648.591 405.966C649.092 405.945 649.349 406.126 649.88 406.323C658.557 416.448 667.249 432.485 672.351 444.969C686.826 480.317 689.25 519.449 679.249 556.313C676.935 564.523 674.499 570.301 671.227 578.121C667.405 572.835 658.165 563.522 653.43 558.482C644.66 549.058 635.96 539.568 627.331 530.014C615.534 515.621 598.689 498.4 585.889 484.304L568.97 465.596C558.289 453.874 556.617 451.966 541.701 446.685C548.482 444.824 556.039 441.835 562.605 439.201C591.107 427.768 620.146 417.496 648.591 405.966Z" />
  <defs>
    <linearGradient id="gradient_4" gradientUnits="userSpaceOnUse" x1="462.64822" y1="600.22772" x2="316.89047"
      y2="499.55869">
      <stop offset="0" stop-color="#4647C2" />
      <stop offset="1" stop-color="#4977F2" />
    </linearGradient>
  </defs>
  <path fill="url(#gradient_4)"
    d="M352.704 445.752C355.175 447.835 367.388 462.298 370.941 466.184L403.125 501.672C410.967 510.23 419.158 518.641 426.845 527.311L447.115 549.984C458.919 563.351 463.875 570.783 480.315 578.706C468.809 583.418 454.097 588.403 442.14 592.972C419.212 601.296 396.892 609.782 373.803 617.788C335.62 565.687 330.1 505.421 352.704 445.752Z" />
  <defs>
    <linearGradient id="gradient_5" gradientUnits="userSpaceOnUse" x1="548.7262" y1="650.88666" x2="421.6116"
      y2="570.1037">
      <stop offset="0" stop-color="#3E31A6" />
      <stop offset="1" stop-color="#484EC8" />
    </linearGradient>
  </defs>
  <path fill="url(#gradient_5)"
    d="M555.449 563.488C555.862 563.837 555.589 563.566 556.025 564.487L539.343 640.482C537.409 649.531 531.887 677.43 528.569 685.232C488.764 690.351 447.028 677.989 413.891 655.958C406.043 650.379 388.428 635.66 383.047 627.977C395.486 624.203 405.835 620.273 418.023 615.891C441.342 607.586 464.537 598.935 487.6 589.941C511.05 581.052 532.881 574.539 555.449 563.488Z" />
  <defs>
    <linearGradient id="gradient_6" gradientUnits="userSpaceOnUse" x1="604.14099" y1="452.82355" x2="474.21811"
      y2="376.93518">
      <stop offset="0" stop-color="#424AC5" />
      <stop offset="1" stop-color="#476BE7" />
    </linearGradient>
  </defs>
  <path fill="url(#gradient_6)"
    d="M499.596 339.25C552.306 333.524 604.379 357.286 640.711 394.474C634.475 397.32 625.292 400.609 618.766 403.156C602.077 409.705 585.288 415.995 568.404 422.024C548.38 429.487 528.516 437.613 508.42 444.914C494.152 450.098 480.914 456.371 467.073 462.556C473.569 427.886 483.096 393.786 490.914 359.42C492.382 352.97 493.333 346.525 495.229 340.158C496.396 339.155 497.95 339.338 499.596 339.25Z" />
  <defs>
    <linearGradient id="gradient_7" gradientUnits="userSpaceOnUse" x1="625.23779" y1="644.21991" x2="528.89398"
      y2="562.22272">
      <stop offset="0" stop-color="#3C2CA0" />
      <stop offset="1" stop-color="#5D6BE2" />
    </linearGradient>
  </defs>
  <path fill="url(#gradient_7)"
    d="M580.077 498.738C585.57 503.177 599.781 518.85 604.947 524.547L643.153 567.01C650.362 575.002 658.376 584.274 666.03 591.639C652.668 617.485 629.426 643.313 604.965 659.078C584.745 671.609 566.854 679.231 543.367 683.278C553.475 640.094 562.971 596.768 571.852 553.314C574.277 541.031 581.072 510.616 580.077 498.738Z" />
  <defs>
    <linearGradient id="gradient_8" gradientUnits="userSpaceOnUse" x1="493.23593" y1="458.43494" x2="396.96283"
      y2="380.83502">
      <stop offset="0" stop-color="#4459D8" />
      <stop offset="1" stop-color="#4A72ED" />
    </linearGradient>
  </defs>
  <path fill="url(#gradient_8)"
    d="M480.388 341.644L480.895 342.239C480.218 347.781 477.933 353.469 476.794 358.949C465.45 413.535 449.17 468.777 443.308 524.243C439.401 519.236 431.895 511.773 427.368 507.03C419.047 498.435 410.916 489.66 402.979 480.711C393.475 469.782 382.911 459.49 373.403 448.53C368.829 443.257 364.08 438.056 359.255 433.014C361.056 429.041 364.852 422.336 367.163 418.68C387.708 386.171 419.23 361.332 455.481 348.552C464.185 345.483 471.464 343.739 480.388 341.644Z" />
</svg>